<svg width="78" height="78" viewBox="0 0 78 78" fill="none" xmlns="http://www.w3.org/2000/svg">
<path d="M32.5 52V48.75H9.7825L9.75 61.75C9.75 65.3575 12.6425 68.25 16.25 68.25H61.75C65.3575 68.25 68.25 65.3575 68.25 61.75V48.75H45.5V52H32.5ZM65 22.75H51.9675V16.25L45.4675 9.75H32.4675L25.9675 16.25V22.75H13C9.425 22.75 6.5 25.675 6.5 29.25V39C6.5 42.6075 9.3925 45.5 13 45.5H32.5V39H45.5V45.5H65C68.575 45.5 71.5 42.575 71.5 39V29.25C71.5 25.675 68.575 22.75 65 22.75ZM45.5 22.75H32.5V16.25H45.5V22.75Z" fill="#4060FF"/>
</svg>
