<svg width="78" height="78" viewBox="0 0 78 78" fill="none" xmlns="http://www.w3.org/2000/svg">
<path d="M69.0209 17.1876L39.7709 7.4376C39.2705 7.2708 38.7295 7.2708 38.2291 7.4376L8.97914 17.1876C8.49379 17.3494 8.07165 17.6598 7.77253 18.0749C7.4734 18.4899 7.31246 18.9886 7.3125 19.5002V43.8752C7.3125 44.5216 7.56931 45.1416 8.02643 45.5988C8.48355 46.0559 9.10353 46.3127 9.75 46.3127C10.3965 46.3127 11.0165 46.0559 11.4736 45.5988C11.9307 45.1416 12.1875 44.5216 12.1875 43.8752V22.8822L22.422 26.2917C19.7028 30.6847 18.8381 35.9772 20.0178 41.0072C21.1974 46.0371 24.325 50.3934 28.7137 53.1194C23.2294 55.2705 18.4884 59.1614 15.0211 64.4812C14.8408 64.7492 14.7155 65.0504 14.6526 65.3672C14.5897 65.6841 14.5904 66.0103 14.6547 66.3269C14.719 66.6434 14.8455 66.9441 15.027 67.2113C15.2085 67.4785 15.4413 67.707 15.7118 67.8835C15.9824 68.06 16.2853 68.1809 16.6031 68.2393C16.9208 68.2976 17.2469 68.2923 17.5625 68.2235C17.8782 68.1547 18.177 68.0238 18.4416 67.8386C18.7062 67.6533 18.9313 67.4172 19.1039 67.1442C23.6955 60.0998 30.9471 56.0627 39 56.0627C47.0529 56.0627 54.3045 60.0998 58.8961 67.1442C59.2536 67.6755 59.8059 68.0448 60.4335 68.1722C61.0611 68.2997 61.7137 68.175 62.2501 67.8251C62.7865 67.4752 63.1636 66.9283 63.3 66.3026C63.4364 65.6768 63.3211 65.0226 62.9789 64.4812C59.5116 59.1614 54.7523 55.2705 49.2862 53.1194C53.6708 50.3935 56.7954 46.0401 57.9749 41.0138C59.1543 35.9875 58.2924 30.6986 55.578 26.3069L69.0209 21.828C69.5063 21.6663 69.9286 21.3559 70.2278 20.9409C70.527 20.5258 70.688 20.0271 70.688 19.5154C70.688 19.0037 70.527 18.505 70.2278 18.09C69.9286 17.6749 69.5063 17.3645 69.0209 17.2028V17.1876ZM53.625 36.5627C53.6257 38.8748 53.0781 41.1542 52.0273 43.2137C50.9764 45.2733 49.4522 47.0543 47.5798 48.4107C45.7073 49.7671 43.5399 50.6603 41.2555 51.0169C38.971 51.3734 36.6345 51.1833 34.4378 50.462C32.241 49.7408 30.2465 48.5089 28.618 46.8676C26.9895 45.2263 25.7734 43.2222 25.0694 41.0198C24.3654 38.8175 24.1936 36.4796 24.5681 34.198C24.9426 31.9164 25.8527 29.7561 27.2238 27.8943L38.2291 31.5506C38.7295 31.7174 39.2705 31.7174 39.7709 31.5506L50.7762 27.8943C52.6278 30.405 53.6263 33.443 53.625 36.5627Z" fill="#4060FF"/>
</svg>
