<svg width="78" height="78" viewBox="0 0 78 78" fill="none" xmlns="http://www.w3.org/2000/svg">
<path d="M13 37.375V50.375C13 53.0725 15.1775 55.25 17.875 55.25C20.5725 55.25 22.75 53.0725 22.75 50.375V37.375C22.75 34.6775 20.5725 32.5 17.875 32.5C15.1775 32.5 13 34.6775 13 37.375ZM32.5 37.375V50.375C32.5 53.0725 34.6775 55.25 37.375 55.25C40.0725 55.25 42.25 53.0725 42.25 50.375V37.375C42.25 34.6775 40.0725 32.5 37.375 32.5C34.6775 32.5 32.5 34.6775 32.5 37.375ZM11.375 71.5H63.375C66.0725 71.5 68.25 69.3225 68.25 66.625C68.25 63.9275 66.0725 61.75 63.375 61.75H11.375C8.6775 61.75 6.5 63.9275 6.5 66.625C6.5 69.3225 8.6775 71.5 11.375 71.5ZM52 37.375V50.375C52 53.0725 54.1775 55.25 56.875 55.25C59.5725 55.25 61.75 53.0725 61.75 50.375V37.375C61.75 34.6775 59.5725 32.5 56.875 32.5C54.1775 32.5 52 34.6775 52 37.375ZM34.3525 4.84254L8.6775 18.3625C7.345 19.045 6.5 20.4425 6.5 21.9375C6.5 24.18 8.32 26 10.5625 26H64.22C66.43 26 68.25 24.18 68.25 21.9375C68.25 20.4425 67.405 19.045 66.0725 18.3625L40.3975 4.84254C38.5125 3.83504 36.2375 3.83504 34.3525 4.84254Z" fill="#4060FF"/>
</svg>
