<svg width="78" height="78" viewBox="0 0 78 78" fill="none" xmlns="http://www.w3.org/2000/svg">
<path d="M11.7 46.8V58.5C11.7 64.9624 23.9226 70.2001 39 70.2001C54.0774 70.2001 66.3 64.9624 66.3 58.5V46.8C66.3 53.2623 54.0774 58.5 39 58.5C23.9226 58.5 11.7 53.2623 11.7 46.8Z" fill="#4060FF"/>
<path d="M11.7 27.3V39C11.7 45.4624 23.9226 50.7001 39 50.7001C54.0774 50.7001 66.3 45.4624 66.3 39V27.3C66.3 33.7623 54.0774 39 39 39C23.9226 39 11.7 33.7623 11.7 27.3Z" fill="#4060FF"/>
<path d="M66.3 19.5C66.3 25.9624 54.0774 31.2001 39 31.2001C23.9226 31.2001 11.7 25.9624 11.7 19.5C11.7 13.0377 23.9226 7.80005 39 7.80005C54.0774 7.80005 66.3 13.0377 66.3 19.5Z" fill="#4060FF"/>
</svg>
